<svg width="54" height="50" viewBox="0 0 54 50" fill="none" xmlns="http://www.w3.org/2000/svg">
<circle cx="25" cy="25" r="25" fill="#44CFCB"/>
<circle cx="29.5" cy="24.5" r="24.5" fill="#2A4494"/>
<path d="M12.2535 19.0169L14.1006 18.6046L18.7745 23.7391L17.4575 17.8554L19.0988 17.4891L20.9853 25.9172L19.224 26.3103L14.4413 21.0921L15.7814 27.0787L14.1401 27.445L12.2535 19.0169ZM25.2594 21.7814C25.1709 21.8692 25.078 21.9459 24.9807 22.0117C24.8863 22.0728 24.7514 22.1409 24.5761 22.2161L24.2255 22.3664C23.896 22.5039 23.6667 22.6331 23.5377 22.754C23.3193 22.9588 23.2451 23.2175 23.3151 23.5301C23.3774 23.8084 23.4989 23.9934 23.6795 24.0851C23.8631 24.1722 24.0655 24.1911 24.2866 24.1418C24.6374 24.0635 24.9365 23.8887 25.184 23.6173C25.4353 23.3451 25.5056 22.9351 25.395 22.3875L25.2594 21.7814ZM24.0998 21.2417C24.3924 21.1364 24.5972 21.0407 24.714 20.9545C24.9244 20.8035 25.0061 20.6232 24.9592 20.4135C24.902 20.1581 24.7732 20.0028 24.5726 19.9475C24.3751 19.8875 24.1047 19.8958 23.7616 19.9724C23.3766 20.0583 23.1253 20.2145 23.0079 20.4408C22.9251 20.6074 22.8915 20.815 22.9071 21.0637L21.3345 21.4147C21.2468 20.8619 21.299 20.38 21.4912 19.9689C21.7991 19.3238 22.4773 18.8842 23.5257 18.6502C24.2081 18.4979 24.8446 18.498 25.4351 18.6503C26.0256 18.8027 26.4049 19.2544 26.573 20.0053L27.213 22.8642C27.2574 23.0625 27.3149 23.3018 27.3857 23.5821C27.4449 23.7931 27.5098 23.9307 27.5802 23.995C27.6506 24.0593 27.7448 24.1044 27.8626 24.1301L27.9164 24.3702L26.1436 24.7659C26.0659 24.6512 26.0051 24.5407 25.9613 24.4344C25.9175 24.3281 25.8741 24.2057 25.8311 24.0672C25.6607 24.3614 25.448 24.627 25.1928 24.864C24.8873 25.1444 24.5134 25.3339 24.0712 25.4326C23.507 25.5585 23.0041 25.5026 22.5626 25.265C22.1241 25.0227 21.8387 24.6061 21.7064 24.0152C21.5349 23.249 21.7062 22.6285 22.2204 22.1535C22.5026 21.8944 22.9493 21.6546 23.5604 21.4341L24.0998 21.2417ZM30.9771 16.9871C31.0076 16.9803 31.0328 16.9767 31.0528 16.9763C31.0756 16.9711 31.1237 16.9624 31.197 16.9501L31.5707 18.6197C31.4652 18.6312 31.372 18.644 31.2911 18.6581C31.2102 18.6721 31.145 18.6847 31.0954 18.6958C30.4397 18.8421 30.0471 19.1539 29.9177 19.631C29.8457 19.8992 29.8656 20.283 29.9773 20.7824L30.6442 23.7614L29.0029 24.1277L27.6078 17.8952L29.1633 17.5481L29.4065 18.6345C29.5651 18.1628 29.7207 17.8299 29.8734 17.6357C30.1212 17.3122 30.4891 17.096 30.9771 16.9871ZM39.1231 15.181C39.3976 15.1197 39.6802 15.1127 39.971 15.1599C40.2617 15.207 40.5456 15.3398 40.8227 15.5581C41.0467 15.7362 41.2246 15.9767 41.3564 16.2795C41.4415 16.4806 41.5292 16.7832 41.6197 17.1873L42.4875 21.118L40.8177 21.4907L39.9294 17.5225C39.8765 17.2862 39.7949 17.1003 39.6845 16.9648C39.4748 16.7075 39.1755 16.6222 38.7866 16.709C38.3367 16.8094 38.0678 17.0655 37.9799 17.4774C37.9366 17.6951 37.9461 17.9432 38.0084 18.2214L38.839 21.9324L37.1978 22.2987L36.3671 18.5878C36.2843 18.218 36.1861 17.9578 36.0723 17.8071C35.8676 17.5366 35.5651 17.446 35.1648 17.5353C34.6997 17.6391 34.4208 17.8595 34.3281 18.1964C34.2788 18.3875 34.2921 18.6527 34.368 18.9919L35.2077 22.7428L33.555 23.1117L32.1624 16.8907L33.7465 16.5371L33.95 17.4463C34.0795 17.0771 34.2185 16.804 34.367 16.6268C34.6288 16.3122 35.0114 16.0987 35.5146 15.9864C35.9912 15.88 36.3997 15.8989 36.7402 16.0431C37.0201 16.1847 37.2551 16.3944 37.4454 16.6721C37.577 16.2585 37.7818 15.9306 38.0598 15.6885C38.3569 15.4421 38.7113 15.2729 39.1231 15.181ZM44.117 13.43L42.4644 13.7989L42.1277 12.2951L43.7804 11.9262L44.117 13.43ZM42.6307 14.5422L44.2834 14.1733L45.6785 20.4058L44.0259 20.7747L42.6307 14.5422Z" fill="white"/>
<path d="M17.3196 32.0926L17.7356 33.9509L19.8058 33.4889C20.1756 33.4064 20.4595 33.2709 20.6575 33.0827C20.8585 32.8897 20.9193 32.616 20.84 32.2615C20.7521 31.8689 20.5416 31.6437 20.2084 31.586C19.9257 31.557 19.5804 31.588 19.1725 31.6791L17.3196 32.0926ZM18.0479 35.3461L18.5509 37.5932L20.6211 37.1312C20.9909 37.0486 21.2676 36.9348 21.4513 36.7898C21.784 36.5234 21.8923 36.131 21.7762 35.6126C21.6781 35.1742 21.4296 34.9135 21.0307 34.8304C20.8082 34.7841 20.5135 34.7998 20.1467 34.8777L18.0479 35.3461ZM19.4053 30.0902C20.4418 29.8749 21.2408 30.0107 21.8022 30.4978C22.1416 30.7983 22.3672 31.1982 22.479 31.6975C22.5942 32.2121 22.5572 32.6547 22.3679 33.0251C22.2623 33.2328 22.0846 33.4405 21.8349 33.6484C22.3007 33.7085 22.6802 33.8839 22.9735 34.1747C23.2705 34.4646 23.4733 34.8516 23.5816 35.3357C23.6934 35.8351 23.6679 36.3111 23.505 36.7637C23.4037 37.0624 23.2531 37.3282 23.053 37.561C22.8284 37.8272 22.5397 38.0397 22.187 38.1985C21.838 38.3564 21.4482 38.4835 21.0174 38.5796L17.1973 39.4323L15.3107 31.0041L19.4053 30.0902ZM28.2594 33.7814C28.1709 33.8692 28.078 33.9459 27.9807 34.0117C27.8863 34.0728 27.7514 34.1409 27.5761 34.2161L27.2255 34.3664C26.896 34.5039 26.6667 34.6331 26.5377 34.754C26.3193 34.9588 26.2451 35.2175 26.3151 35.5301C26.3774 35.8084 26.4989 35.9934 26.6795 36.0851C26.8631 36.1722 27.0655 36.1911 27.2866 36.1418C27.6374 36.0635 27.9365 35.8887 28.184 35.6173C28.4353 35.3451 28.5056 34.9351 28.395 34.3875L28.2594 33.7814ZM27.0998 33.2417C27.3924 33.1364 27.5972 33.0407 27.714 32.9545C27.9244 32.8035 28.0061 32.6232 27.9592 32.4135C27.902 32.1581 27.7732 32.0028 27.5726 31.9475C27.3751 31.8875 27.1047 31.8958 26.7616 31.9724C26.3766 32.0583 26.1253 32.2145 26.0079 32.4408C25.9251 32.6074 25.8915 32.815 25.9071 33.0637L24.3345 33.4147C24.2468 32.8619 24.299 32.38 24.4912 31.9689C24.7991 31.3238 25.4773 30.8842 26.5257 30.6502C27.2081 30.4979 27.8446 30.498 28.4351 30.6503C29.0256 30.8027 29.4049 31.2544 29.573 32.0053L30.213 34.8642C30.2574 35.0625 30.3149 35.3018 30.3857 35.5821C30.4449 35.7931 30.5098 35.9307 30.5802 35.995C30.6506 36.0593 30.7448 36.1044 30.8626 36.1301L30.9164 36.3702L29.1436 36.7659C29.0659 36.6512 29.0051 36.5407 28.9613 36.4344C28.9175 36.3281 28.8741 36.2057 28.8311 36.0672C28.6607 36.3614 28.448 36.627 28.1928 36.864C27.8873 37.1444 27.5134 37.3339 27.0712 37.4326C26.507 37.5585 26.0041 37.5026 25.5626 37.265C25.1241 37.0227 24.8387 36.6061 24.7064 36.0152C24.5349 35.249 24.7062 34.6285 25.2204 34.1535C25.5026 33.8944 25.9493 33.6546 26.5604 33.4341L27.0998 33.2417ZM34.0458 28.9718C34.6901 28.828 35.2542 28.8802 35.738 29.1284C36.2249 29.372 36.5557 29.8845 36.7307 30.6659L37.6701 34.8628L36.0003 35.2355L35.1517 31.4446C35.0783 31.1168 34.9781 30.875 34.8512 30.7192C34.6194 30.4347 34.2786 30.3427 33.8287 30.4431C33.2759 30.5665 32.949 30.8856 32.8481 31.4004C32.7968 31.672 32.8143 32.0003 32.9005 32.3853L33.6556 35.7588L32.0315 36.1213L30.639 29.9003L32.2116 29.5493L32.4151 30.4584C32.5531 30.0914 32.6997 29.8166 32.855 29.6338C33.1342 29.3074 33.5311 29.0867 34.0458 28.9718ZM37.2825 26.1301L38.8837 25.7728L39.9 30.3127L41.4053 27.5153L43.424 27.0647L41.7789 29.9354L44.8985 33.2495L42.9313 33.6886L40.8423 31.3572L40.3249 32.2111L40.7639 34.1723L39.1627 34.5297L37.2825 26.1301Z" fill="white"/>
</svg>
